<svg xmlns="http://www.w3.org/2000/svg" xml:space="preserve" width="430px" height="20px" version="1.0" style="shape-rendering:geometricPrecision; text-rendering:geometricPrecision; image-rendering:optimizeQuality; fill-rule:evenodd; clip-rule:evenodd"
viewBox="0 0 19341 807"
 xmlns:xlink="http://www.w3.org/1999/xlink">
      <defs>
        <style type="text/css">
   <![CDATA[
    .str0 {stroke:black;stroke-width:19.9897}
    .fil0 {fill:black;fill-rule:nonzero}
   ]]>
  </style>
  </defs>
      <g id="Camada_x0020_1">
        <metadata id="CorelCorpID_0Corel-Layer"/>
        <g id="_824620024064">
          <polygon class="fil0 str0" points="16136,629 16136,10 16768,10 16768,115 16279,115 16279,253 16565,253 16565,359 16279,359 16279,512 16774,512 16774,629 "/>
          <path class="fil0 str0" d="M14703 629c-55,0 -93,-9 -112,-26 -20,-17 -29,-49 -29,-96l0 -50 127 -26 0 86 333 0c24,0 40,-4 48,-11 8,-7 12,-22 12,-44l0 -45c0,-23 -4,-38 -12,-46 -8,-7 -24,-11 -48,-11l-208 0 0 -101 186 0c23,0 39,-3 46,-11 8,-7 12,-22 12,-45l0 -31c0,-23 -4,-38 -12,-46 -7,-7 -23,-11 -46,-11l-306 0 0 77 -123 -22 0 -39c0,-46 10,-78 29,-95 19,-17 57,-26 113,-26l335 0c56,0 93,9 112,26 19,17 29,49 29,95l0 56c0,36 -9,63 -27,81 -17,18 -48,30 -93,37 50,5 86,17 109,37 23,21 35,50 35,89l0 65c0,50 -11,85 -33,104 -22,19 -61,29 -117,29l-360 0z"/>
          <polygon class="fil0 str0" points="11305,120 11305,629 11161,629 11161,120 10877,120 10877,10 11590,10 11590,120 "/>
          <path class="fil0 str0" d="M3748 629l0 -619 398 0c114,0 201,27 262,80 61,53 92,128 92,225 0,58 -12,110 -36,157 -24,46 -57,82 -101,109 -27,16 -60,29 -100,36 -40,8 -91,12 -154,12l-361 0zm144 -117l186 0c99,0 170,-15 211,-46 41,-31 62,-82 62,-153 0,-63 -17,-111 -51,-144 -35,-32 -85,-49 -153,-49l-255 0 0 392z"/>
          <path class="fil0 str0" d="M151 629c-55,0 -93,-9 -112,-26 -19,-17 -29,-49 -29,-96l0 -50 127 -26 0 86 334 0c23,0 39,-4 47,-11 8,-7 12,-22 12,-44l0 -45c0,-23 -4,-38 -12,-46 -8,-7 -24,-11 -47,-11l-209 0 0 -101 186 0c23,0 39,-3 47,-11 7,-7 11,-22 11,-45l0 -31c0,-23 -4,-38 -11,-46 -8,-7 -24,-11 -47,-11l-306 0 0 77 -122 -22 0 -39c0,-46 9,-78 28,-95 19,-17 57,-26 113,-26l335 0c56,0 93,9 112,26 19,17 29,49 29,95l0 56c0,36 -9,63 -26,81 -18,18 -49,30 -94,37 50,5 86,17 109,37 23,21 35,50 35,89l0 65c0,50 -11,85 -33,104 -22,19 -61,29 -117,29l-360 0zm2713 -509l0 509 -144 0 0 -509 -284 0 0 -110 713 0 0 110 -285 0zm-1063 509c-60,0 -101,-11 -123,-31 -21,-21 -32,-60 -32,-116l0 -40c0,-27 5,-48 14,-64 9,-15 30,-32 63,-52l125 -75c-18,-16 -31,-31 -40,-45 -8,-15 -12,-31 -12,-48l0 -35c0,-41 11,-70 34,-87 22,-17 62,-26 119,-26l125 0c59,0 100,9 121,27 22,18 32,51 32,98l0 37 -111 19 0 -83 -203 0 0 45 292 242 143 -120 82 71 -143 118 196 165 -189 0 -102 -87 -55 50c-16,14 -31,23 -46,29 -15,5 -38,8 -70,8l-220 0zm-34 -108l287 0 57 -49 -185 -155 -159 98 0 106zm-993 108l0 -619 398 0c114,0 201,27 262,80 61,53 91,128 91,225 0,58 -11,110 -35,157 -24,46 -58,82 -101,109 -27,16 -60,29 -100,36 -40,8 -92,12 -154,12l-361 0zm144 -117l186 0c99,0 169,-15 211,-46 41,-31 62,-82 62,-153 0,-63 -17,-111 -52,-144 -34,-32 -85,-49 -152,-49l-255 0 0 392z"/>
          <path class="fil0" d="M3466 331c0,37 -14,70 -41,97 -26,26 -59,40 -97,40 -37,0 -70,-14 -97,-40 -26,-27 -40,-60 -40,-97 0,-38 14,-71 40,-97 27,-27 60,-40 97,-40 38,0 71,13 97,40 27,26 41,59 41,97zm1628 120l-338 0c3,27 10,47 22,60 16,19 38,29 64,29 17,0 32,-4 47,-13 9,-5 19,-14 30,-27l166 15c-26,44 -56,76 -92,95 -36,19 -88,29 -155,29 -58,0 -104,-8 -137,-25 -33,-16 -61,-42 -83,-78 -22,-36 -33,-78 -33,-126 0,-69 22,-125 66,-167 44,-42 105,-64 182,-64 63,0 113,10 149,29 37,19 64,46 83,83 19,36 29,83 29,141l0 19zm-171 -81c-3,-32 -12,-56 -26,-70 -15,-14 -33,-21 -57,-21 -26,0 -48,11 -64,32 -10,13 -17,33 -19,59l166 0zm435 -181l80 0 0 124 -80 0 0 316 -169 0 0 -316 -62 0 0 -124 62 0 0 -19c0,-18 2,-38 6,-59 4,-22 11,-39 22,-53 11,-13 25,-24 45,-33 19,-8 47,-12 83,-12 30,0 73,3 129,10l-19 101c-20,-3 -36,-5 -48,-5 -16,0 -26,3 -33,8 -7,5 -11,13 -14,24 -1,6 -2,19 -2,38zm615 262l-338 0c4,27 11,47 22,60 17,19 38,29 64,29 17,0 33,-4 47,-13 10,-5 19,-14 30,-27l166 15c-26,44 -56,76 -92,95 -36,19 -87,29 -154,29 -59,0 -104,-8 -138,-25 -33,-16 -61,-42 -83,-78 -22,-36 -33,-78 -33,-126 0,-69 22,-125 66,-167 44,-42 105,-64 183,-64 62,0 112,10 148,29 37,19 65,46 84,83 19,36 28,83 28,141l0 19zm-171 -81c-3,-32 -12,-56 -26,-70 -14,-14 -33,-21 -56,-21 -27,0 -49,11 -65,32 -10,13 -16,33 -19,59l166 0zm248 -181l157 0 0 72c23,-29 47,-50 71,-63 24,-12 53,-19 87,-19 47,0 83,14 109,42 27,27 40,70 40,128l0 280 -169 0 0 -242c0,-28 -6,-47 -16,-59 -10,-11 -24,-17 -42,-17 -21,0 -37,8 -50,23 -12,16 -19,44 -19,84l0 211 -168 0 0 -440zm535 318l167 -16c7,20 16,34 29,43 12,8 28,12 49,12 23,0 40,-4 53,-14 9,-7 14,-16 14,-27 0,-12 -6,-21 -19,-28 -9,-5 -33,-10 -72,-17 -58,-11 -99,-20 -122,-29 -23,-8 -42,-23 -57,-44 -16,-20 -23,-44 -23,-71 0,-28 8,-53 25,-74 16,-21 40,-37 69,-47 29,-11 69,-16 118,-16 53,0 91,4 116,12 25,8 46,21 62,37 17,17 31,40 42,69l-159 15c-4,-14 -11,-24 -21,-31 -13,-9 -29,-13 -48,-13 -18,0 -32,3 -41,10 -8,7 -13,15 -13,25 0,11 6,19 17,24 10,6 34,11 71,15 56,6 98,15 125,27 27,11 48,27 62,48 15,21 22,44 22,69 0,26 -7,50 -23,74 -15,24 -39,43 -72,57 -33,15 -78,22 -134,22 -81,0 -138,-12 -172,-35 -34,-23 -56,-55 -65,-97zm526 -97c0,-67 23,-122 68,-166 45,-43 106,-65 183,-65 87,0 154,26 199,77 36,41 54,92 54,152 0,67 -23,123 -67,166 -45,43 -107,65 -186,65 -70,0 -127,-18 -171,-54 -53,-45 -80,-103 -80,-175zm169 0c0,39 7,68 23,87 16,19 36,28 60,28 24,0 44,-9 59,-27 16,-19 23,-49 23,-90 0,-38 -7,-66 -23,-85 -16,-19 -35,-28 -58,-28 -25,0 -45,10 -61,29 -16,19 -23,47 -23,86zm418 -221l157 0 0 72c15,-31 31,-53 47,-64 16,-12 36,-18 60,-18 25,0 52,8 82,24l-53 119c-19,-8 -35,-12 -47,-12 -22,0 -39,9 -51,27 -17,26 -26,74 -26,144l0 148 -169 0 0 -440zm875 262l-338 0c3,27 10,47 22,60 16,19 37,29 64,29 16,0 32,-4 47,-13 9,-5 19,-14 29,-27l166 15c-25,44 -56,76 -92,95 -35,19 -87,29 -154,29 -58,0 -104,-8 -137,-25 -34,-16 -61,-42 -83,-78 -22,-36 -33,-78 -33,-126 0,-69 22,-125 66,-167 44,-42 105,-64 182,-64 63,0 112,10 149,29 36,19 64,46 83,83 19,36 29,83 29,141l0 19zm-171 -81c-4,-32 -13,-56 -27,-70 -14,-14 -33,-21 -56,-21 -27,0 -48,11 -64,32 -10,13 -17,33 -20,59l167 0zm218 137l167 -16c7,20 16,34 29,43 12,8 28,12 49,12 23,0 40,-4 53,-14 9,-7 14,-16 14,-27 0,-12 -6,-21 -19,-28 -9,-5 -33,-10 -72,-17 -58,-11 -99,-20 -122,-29 -22,-8 -42,-23 -57,-44 -16,-20 -23,-44 -23,-71 0,-28 8,-53 25,-74 16,-21 40,-37 69,-47 30,-11 69,-16 119,-16 52,0 90,4 115,12 25,8 46,21 63,37 16,17 30,40 41,69l-159 15c-4,-14 -11,-24 -21,-31 -13,-9 -29,-13 -47,-13 -19,0 -33,3 -42,10 -8,7 -13,15 -13,25 0,11 6,19 17,24 10,6 34,11 71,15 56,6 98,15 125,27 27,11 48,27 63,48 14,21 21,44 21,69 0,26 -7,50 -23,74 -15,24 -39,43 -72,57 -33,15 -78,22 -134,22 -80,0 -138,-12 -172,-35 -34,-23 -55,-55 -65,-97zm1291 -484l0 606 -158 0 0 -65c-22,27 -42,46 -60,56 -24,12 -52,19 -81,19 -60,0 -106,-23 -137,-69 -32,-45 -47,-101 -47,-166 0,-72 17,-128 52,-167 35,-38 79,-58 133,-58 26,0 50,5 71,13 21,9 40,22 57,40l0 -209 170 0zm-169 384c0,-34 -7,-60 -22,-77 -14,-17 -33,-26 -55,-26 -20,0 -36,9 -49,25 -13,16 -20,44 -20,82 0,36 7,62 20,79 14,17 31,25 51,25 21,0 39,-8 53,-25 15,-17 22,-44 22,-83zm759 44l-338 0c3,27 10,47 22,60 16,19 37,29 64,29 16,0 32,-4 47,-13 9,-5 19,-14 29,-27l166 15c-25,44 -56,76 -92,95 -35,19 -87,29 -154,29 -58,0 -104,-8 -137,-25 -34,-16 -61,-42 -83,-78 -22,-36 -33,-78 -33,-126 0,-69 22,-125 66,-167 44,-42 105,-64 182,-64 63,0 112,10 149,29 36,19 64,46 83,83 19,36 29,83 29,141l0 19zm-171 -81c-4,-32 -13,-56 -27,-70 -14,-14 -33,-21 -56,-21 -27,0 -48,11 -64,32 -10,13 -17,33 -20,59l167 0zm1259 40c0,-67 22,-122 67,-166 46,-43 106,-65 183,-65 88,0 154,26 199,77 36,41 54,92 54,152 0,67 -22,123 -67,166 -44,43 -106,65 -185,65 -71,0 -128,-18 -171,-54 -54,-45 -80,-103 -80,-175zm168 0c0,39 8,68 24,87 16,19 35,28 59,28 24,0 44,-9 60,-27 15,-19 23,-49 23,-90 0,-38 -8,-66 -23,-85 -16,-19 -35,-28 -59,-28 -24,0 -44,10 -60,29 -16,19 -24,47 -24,86zm79 -398l145 0 -134 123 -81 0 70 -123zm800 783l-171 0 0 -209c-16,18 -35,31 -56,40 -22,8 -45,13 -72,13 -53,0 -97,-19 -132,-58 -35,-38 -53,-94 -53,-165 0,-48 8,-91 24,-127 16,-37 38,-65 67,-83 28,-18 59,-27 94,-27 29,0 56,7 81,20 18,9 38,28 60,55l0 -65 158 0 0 606zm-169 -385c0,-38 -7,-65 -22,-82 -14,-17 -32,-25 -53,-25 -20,0 -37,8 -51,25 -14,17 -20,45 -20,84 0,35 6,61 20,77 13,16 29,24 49,24 22,0 41,-8 55,-25 15,-17 22,-43 22,-78zm733 219l-157 0 0 -71c-24,29 -47,50 -71,62 -24,13 -53,19 -88,19 -46,0 -82,-14 -108,-42 -27,-28 -40,-70 -40,-128l0 -280 169 0 0 242c0,28 6,48 16,59 10,12 24,18 42,18 20,0 37,-8 50,-24 12,-15 19,-43 19,-83l0 -212 168 0 0 440zm108 -606l169 0 0 114 -169 0 0 -114zm0 166l169 0 0 440 -169 0 0 -440zm256 221c0,-67 22,-122 68,-166 45,-43 106,-65 182,-65 88,0 154,26 199,77 36,41 54,92 54,152 0,67 -22,123 -67,166 -44,43 -106,65 -185,65 -71,0 -128,-18 -171,-54 -54,-45 -80,-103 -80,-175zm168 0c0,39 8,68 24,87 16,19 35,28 59,28 25,0 44,-9 60,-27 15,-19 23,-49 23,-90 0,-38 -8,-66 -23,-85 -16,-19 -35,-28 -58,-28 -25,0 -45,10 -61,29 -16,19 -24,47 -24,86zm1889 -95l-90 0c-4,-9 -8,-18 -10,-28 -13,12 -25,20 -37,25 -17,6 -37,9 -60,9 -34,0 -60,-8 -78,-24 -17,-16 -26,-38 -26,-64 0,-25 8,-44 22,-59 15,-15 45,-26 93,-35 28,-4 55,-11 78,-20 0,-15 -3,-26 -9,-32 -6,-6 -17,-8 -32,-8 -15,0 -26,2 -32,7 -7,4 -12,13 -16,25l-91 -18c5,-20 13,-35 22,-46 10,-11 22,-20 38,-26 15,-6 38,-8 69,-8 58,0 97,7 116,23 19,15 28,40 28,75l0 139c0,17 1,30 3,38 2,7 6,16 12,27zm-108 -139c-15,5 -32,10 -50,13 -18,4 -30,8 -36,14 -7,7 -10,14 -10,22 0,10 3,18 10,25 8,6 17,10 30,10 17,0 31,-6 41,-17 10,-11 15,-28 15,-51l0 -16zm1832 -153l0 606 -158 0 0 -65c-22,27 -42,46 -60,56 -24,12 -51,19 -81,19 -60,0 -105,-23 -137,-69 -31,-45 -47,-101 -47,-166 0,-72 17,-128 52,-167 35,-38 79,-58 133,-58 26,0 50,5 71,13 22,9 40,22 57,40l0 -209 170 0zm-169 384c0,-34 -7,-60 -22,-77 -14,-17 -33,-26 -55,-26 -19,0 -36,9 -49,25 -13,16 -20,44 -20,82 0,36 7,62 21,79 13,17 30,25 50,25 22,0 39,-8 54,-25 14,-17 21,-44 21,-83zm277 -384l169 0 0 114 -169 0 0 -114zm0 166l169 0 0 440 -169 0 0 -440zm604 268l160 18c-9,33 -24,62 -44,86 -20,25 -46,44 -77,57 -31,14 -71,21 -119,21 -47,0 -86,-5 -117,-13 -31,-9 -57,-23 -80,-43 -22,-19 -39,-42 -52,-68 -13,-26 -19,-61 -19,-104 0,-45 8,-83 23,-113 11,-22 27,-42 46,-59 20,-18 40,-31 61,-39 33,-14 75,-21 126,-21 72,0 126,13 164,39 38,25 64,63 79,112l-158 21c-5,-19 -14,-33 -27,-42 -13,-10 -31,-15 -53,-15 -28,0 -50,10 -68,30 -17,20 -26,50 -26,91 0,36 9,64 26,82 17,19 39,28 65,28 22,0 41,-5 56,-16 15,-12 26,-29 34,-52zm-191 240l13 -49c26,-6 50,-9 73,-9 47,0 79,8 97,24 18,16 27,35 27,56 0,14 -4,27 -12,41 -8,14 -23,26 -44,34 -21,9 -49,13 -83,13 -32,0 -69,-3 -111,-11l0 -50c28,5 59,8 91,8 24,0 40,-3 48,-10 9,-6 13,-14 13,-24 0,-8 -3,-15 -10,-21 -7,-6 -18,-9 -33,-9 -19,0 -42,3 -69,7zm582 -365l-161 -17c6,-29 15,-51 26,-67 12,-16 28,-30 49,-42 16,-8 37,-15 64,-20 27,-4 56,-7 88,-7 50,0 90,3 121,9 30,5 56,17 76,35 15,13 26,30 34,53 8,23 12,44 12,65l0 194c0,21 2,37 4,49 3,11 9,26 17,45l-157 0c-6,-12 -11,-20 -13,-26 -1,-6 -3,-15 -5,-28 -22,21 -44,37 -66,46 -30,12 -64,18 -104,18 -52,0 -92,-12 -119,-37 -27,-24 -41,-54 -41,-90 0,-33 10,-61 30,-82 19,-22 55,-38 108,-48 63,-13 104,-22 123,-27 18,-5 38,-12 59,-20 0,-21 -4,-35 -13,-44 -8,-8 -23,-12 -44,-12 -28,0 -49,4 -62,13 -11,7 -20,20 -26,40zm145 88c-23,8 -47,15 -72,22 -34,9 -56,18 -65,27 -10,9 -14,19 -14,31 0,13 4,24 14,33 9,8 22,13 40,13 19,0 37,-5 53,-14 16,-9 27,-20 34,-34 7,-13 10,-30 10,-51l0 -27zm15 -397l65 0c0,7 0,13 0,18 0,31 -8,55 -23,72 -15,16 -35,25 -59,25 -18,0 -45,-7 -80,-22 -22,-9 -37,-13 -45,-13 -8,0 -15,3 -19,8 -4,4 -7,13 -7,26l-64 0c-1,-7 -1,-12 -1,-18 0,-29 8,-53 25,-70 16,-18 35,-26 57,-26 10,0 19,1 28,3 8,2 24,8 47,18 23,9 40,14 50,14 7,0 13,-2 18,-7 4,-5 7,-15 8,-28zm230 387c0,-67 22,-122 67,-166 46,-43 107,-65 183,-65 88,0 154,26 199,77 36,41 54,92 54,152 0,67 -22,123 -67,166 -44,43 -106,65 -185,65 -71,0 -128,-18 -171,-54 -54,-45 -80,-103 -80,-175zm168 0c0,39 8,68 24,87 16,19 35,28 59,28 25,0 44,-9 60,-27 15,-19 23,-49 23,-90 0,-38 -8,-66 -23,-85 -16,-19 -35,-28 -58,-28 -25,0 -45,10 -61,29 -16,19 -24,47 -24,86z"/>
        </g>
  </g>
      </svg>